<svg width="110" height="21" viewBox="0 0 110 21" fill="none" xmlns="http://www.w3.org/2000/svg">
<path d="M14.1976 15.3836L1.29492 0.435806H0V20.0078H2.4398V5.04571L15.3443 20.0078H16.6249V0.435806H14.1976V15.3836Z" fill="white"/>
<path d="M18.3789 20.0078H31.3227V17.743H20.8062V10.3915H29.0865V8.14101H20.8062V2.71307H31.3227V0.435806H18.3789V20.0078Z" fill="white"/>
<path d="M39.9156 8.24817C36.6542 7.63554 34.5877 7.1658 34.5877 5.27076C34.5877 3.61862 36.2255 2.36479 38.7761 2.36479C40.8551 2.36479 42.9216 3.24712 44.3594 4.71529L45.9401 2.94884C43.9325 0.996641 41.2819 0 38.8171 0C34.6002 0.0142887 32.0943 2.39336 32.0943 5.39936C32.0943 8.90367 35.4128 9.82886 38.7314 10.5129C41.7945 11.1541 44.6862 11.7382 44.6862 14.3012C44.6862 16.3802 42.7912 18.0467 39.8852 18.0467C37.4919 18.0324 35.0842 16.8928 33.2481 14.8853L31.596 16.666C34.0893 19.2576 37.1078 20.44 39.8995 20.44C44.1861 20.44 47.1921 17.777 47.1921 14.3441C47.1921 9.80029 42.8912 8.81794 39.9138 8.24817H39.9156Z" fill="white"/>
<path d="M62.1524 0.435806H46.0579V2.72736H52.8772V20.0078H55.3188V2.72736H62.1524V0.435806Z" fill="white"/>
<path d="M65.0244 0.462601L57.2639 20.0078H61.5058L62.7061 16.7482H71.34L72.5671 20.0078H76.809L69.0628 0.462601H65.0262H65.0244ZM64.1099 13.0528L67.0427 5.22432L69.9344 13.0528H64.1099Z" fill="white"/>
<path d="M89.2563 11.6328C90.2923 11.2774 91.2067 10.6505 91.889 9.65561C92.5302 8.72863 92.8857 7.58196 92.8857 6.31384C92.8857 4.07765 91.8623 2.34515 90.2798 1.37708C89.3385 0.776957 88.1936 0.462601 86.529 0.462601H76.968V20.0078H81.0457V12.1097H84.7286L89.3528 20.0078H94.0448L89.0795 11.7007L89.2563 11.6328ZM87.4845 8.18209C87.1434 8.33212 86.7755 8.3732 85.9985 8.3732H81.0475V4.22768H85.9842C86.788 4.22768 87.1577 4.28305 87.4845 4.43308C88.2758 4.74744 88.8616 5.40115 88.8616 6.31563C88.8616 7.2301 88.2472 7.87131 87.4845 8.18387V8.18209Z" fill="white"/>
<path d="M92.9339 0.450096V4.22768H99.3585V20.0078H103.45V4.22768H109.887V0.450096H92.9339Z" fill="white"/>
</svg>
